HIERARCHY
ROOT Hips
{
	OFFSET 0.00000 0.00000 0.00000
	CHANNELS 6 Xposition Yposition Zposition Zrotation Yrotation Xrotation 
	JOINT LHipJoint
	{
		OFFSET 0 0 0
		CHANNELS 3 Zrotation Yrotation Xrotation
		JOINT LeftUpLeg
		{
			OFFSET 1.48831 -1.59570 0.95625
			CHANNELS 3 Zrotation Yrotation Xrotation
			JOINT LeftLeg
			{
				OFFSET 2.20856 -6.06797 0.00000
				CHANNELS 3 Zrotation Yrotation Xrotation
				JOINT LeftFoot
				{
					OFFSET 2.62924 -7.22379 0.00000
					CHANNELS 3 Zrotation Yrotation Xrotation
					JOINT LeftToeBase
					{
						OFFSET 0.16802 -0.46163 2.41673
						CHANNELS 3 Zrotation Yrotation Xrotation
						End Site
						{
							OFFSET 0.00000 -0.00000 1.23760
						}
					}
				}
			}
		}
	}
	JOINT RHipJoint
	{
		OFFSET 0 0 0
		CHANNELS 3 Zrotation Yrotation Xrotation
		JOINT RightUpLeg
		{
			OFFSET -1.56796 -1.59570 0.95625
			CHANNELS 3 Zrotation Yrotation Xrotation
			JOINT RightLeg
			{
				OFFSET -2.29239 -6.29829 0.00000
				CHANNELS 3 Zrotation Yrotation Xrotation
				JOINT RightFoot
				{
					OFFSET -2.66963 -7.33475 0.00000
					CHANNELS 3 Zrotation Yrotation Xrotation
					JOINT RightToeBase
					{
						OFFSET -0.18185 -0.49964 2.34359
						CHANNELS 3 Zrotation Yrotation Xrotation
						End Site
						{
							OFFSET -0.00000 -0.00000 1.20477
						}
					}
				}
			}
		}
	}
	JOINT LowerBack
	{
		OFFSET 0 0 0
		CHANNELS 3 Zrotation Yrotation Xrotation
		JOINT Spine
		{
			OFFSET 0.03505 2.15832 -0.34324
			CHANNELS 3 Zrotation Yrotation Xrotation
			JOINT Spine1
			{
				OFFSET -0.01089 2.17963 0.04689
				CHANNELS 3 Zrotation Yrotation Xrotation
				JOINT Neck
				{
					OFFSET 0 0 0
					CHANNELS 3 Zrotation Yrotation Xrotation
					JOINT Neck1
					{
						OFFSET 0.04686 1.69404 0.22159
						CHANNELS 3 Zrotation Yrotation Xrotation
						JOINT Head
						{
							OFFSET 0.00265 1.69305 -0.01513
							CHANNELS 3 Zrotation Yrotation Xrotation
							End Site
							{
								OFFSET -0.00415 1.80215 -0.03034
							}
						}
					}
				}
				JOINT LeftShoulder
				{
					OFFSET 0 0 0
					CHANNELS 3 Zrotation Yrotation Xrotation
					JOINT LeftArm
					{
						OFFSET 3.67184 1.11724 -0.19002
						CHANNELS 3 Zrotation Yrotation Xrotation
						JOINT LeftForeArm
						{
							OFFSET 5.17714 -0.00000 -0.00000
							CHANNELS 3 Zrotation Yrotation Xrotation
							JOINT LeftHand
							{
								OFFSET 3.43679 -0.00000 -0.00000
								CHANNELS 3 Zrotation Yrotation Xrotation
								JOINT LeftFingerBase
								{
									OFFSET 0 0 0
									CHANNELS 3 Zrotation Yrotation Xrotation
									JOINT LeftHandIndex1
									{
										OFFSET 0.57312 -0.00000 -0.00000
										CHANNELS 3 Zrotation Yrotation Xrotation
										End Site
										{
											OFFSET 0.46206 -0.00000 -0.00000
										}
									}
								}
								JOINT LThumb
								{
									OFFSET 0 0 0
									CHANNELS 3 Zrotation Yrotation Xrotation
									End Site
									{
										OFFSET 0.46912 -0.00000 0.46912
									}
								}
							}
						}
					}
				}
				JOINT RightShoulder
				{
					OFFSET 0 0 0
					CHANNELS 3 Zrotation Yrotation Xrotation
					JOINT RightArm
					{
						OFFSET -3.59596 0.95831 -0.26050
						CHANNELS 3 Zrotation Yrotation Xrotation
						JOINT RightForeArm
						{
							OFFSET -5.23908 -0.00000 -0.00000
							CHANNELS 3 Zrotation Yrotation Xrotation
							JOINT RightHand
							{
								OFFSET -3.46485 -0.00000 -0.00000
								CHANNELS 3 Zrotation Yrotation Xrotation
								JOINT RightFingerBase
								{
									OFFSET 0 0 0
									CHANNELS 3 Zrotation Yrotation Xrotation
									JOINT RightHandIndex1
									{
										OFFSET -0.60875 -0.00000 -0.00000
										CHANNELS 3 Zrotation Yrotation Xrotation
										End Site
										{
											OFFSET -0.49079 -0.00000 -0.00000
										}
									}
								}
								JOINT RThumb
								{
									OFFSET 0 0 0
									CHANNELS 3 Zrotation Yrotation Xrotation
									End Site
									{
										OFFSET -0.49829 -0.00000 0.49829
									}
								}
							}
						}
					}
				}
			}
		}
	}
}
MOTION
Frames: 12
Frame Time: .0083333
50.7364 15.9559 18.9496 0 0 0 0 0 0 -21 0 0 0 0 0 0 0 0 0 0 0 0 0 0 21 0 0 0 0 0 0 0 0 0 0 0 0 0 0 0 0 0 0 0 0 0 0 -16 0 0 21 0 0 11 0 0 0 -8 0 0 0 0 0 0 0 0 0 0 0 0 0 0 0 0 0 0 0 0 8 0 0 0 0 0 0 0 0 0 0 0 0 0 0 0 0 0
50.7364 15.9559 18.9496 -174.9550 -41.5651 -179.5430 0.0000 0.0000 0.0000 -15.8741 1.1317 -14.4250 2.9971 10.6903 31.2423 1.3623 -6.1295 -20.9023 0.0515 1.4650 4.0291 0.0000 0.0000 0.0000 27.2132 9.4054 -15.2849 -3.8746 -11.9916 35.7024 -1.8482 -2.4361 -26.6585 -0.0338 -1.1876 3.2651 5.6601 -0.7173 -3.2096 0.3377 -1.3580 3.3767 -2.9269 -0.4907 5.1965 2.0528 -1.4092 -4.1921 7.3439 -2.6760 5.1357 1.9144 -1.1720 2.4511 0.0000 -0.0000 0.0000 -88.0851 -1.1082 18.7990 12.8128 -21.0124 -2.3858 -0.0000 0.0000 -20.9684 17.2320 8.8641 2.7363 -7.1250 0.0000 -0.0000 -8.3938 39.1220 1.2258 0.0000 -0.0000 0.0000 89.6023 -1.5997 18.4689 -19.1821 29.6444 -5.1206 0.0000 -0.0000 -4.0606 -23.0539 -10.4488 4.4135 7.1250 -0.0000 -0.0000 3.5578 -41.2869 0.3263
50.7248 15.9554 18.9490 -175.0000 -41.6100 -179.7620 0.0000 0.0000 0.0000 -15.9410 1.2175 -13.9786 2.9477 10.6099 30.9752 1.3670 -6.1120 -20.9399 0.0424 1.3290 3.6545 0.0000 0.0000 0.0000 27.1969 9.3482 -14.9658 -3.8704 -11.9859 35.6821 -1.8532 -2.5767 -26.7530 -0.0310 -1.1364 3.1242 5.5052 -0.8429 -3.1271 0.4621 -1.5218 3.4025 -2.7210 -0.5822 5.1674 1.9468 -1.3880 -4.1056 7.2178 -2.6131 5.0407 1.8932 -1.1475 2.4003 -0.0000 -0.0000 0.0000 -88.3230 -1.0250 18.3590 12.6307 -20.7437 -2.3208 -0.0000 0.0000 -20.6210 17.3450 8.5097 2.6462 -7.1250 0.0000 -0.0000 -8.2394 38.7644 1.2758 -0.0000 -0.0000 0.0000 89.4602 -1.5428 18.7388 -19.2005 29.6671 -5.1297 0.0000 -0.0000 -4.1672 -23.3228 -10.4854 4.4863 7.1250 -0.0000 -0.0000 3.3242 -41.3520 0.2995
50.7151 15.9520 18.9489 -175.0420 -41.6763 -179.9520 0.0000 0.0000 0.0000 -15.9794 1.4213 -13.6451 2.9112 10.5499 30.7764 1.3635 -6.3178 -20.9023 0.0431 1.3400 3.6849 0.0000 0.0000 0.0000 27.1832 9.3579 -14.6832 -3.8771 -11.9951 35.7146 -1.8697 -2.7168 -26.9275 -0.0273 -1.0661 2.9308 5.4141 -0.8383 -3.0557 0.4710 -1.5094 3.4427 -2.6588 -0.5796 5.1716 1.9342 -1.3707 -4.3923 7.4006 -2.6352 5.2204 1.9560 -1.1453 2.5188 -0.0000 0.0000 0.0000 -88.2774 -1.0627 18.3712 12.4086 -20.4145 -2.2428 -0.0000 0.0000 -20.3786 17.3780 8.3738 2.6095 -7.1250 0.0000 -0.0000 -8.1896 38.6264 1.2960 -0.0000 0.0000 0.0000 89.5715 -1.4868 18.6311 -19.2280 29.7010 -5.1433 0.0000 -0.0000 -4.2446 -23.5458 -10.4202 4.5064 7.1250 -0.0000 -0.0000 3.1182 -41.3028 0.2847
50.7089 15.9523 18.9532 -175.0490 -41.8616 -179.9760 0.0000 0.0000 0.0000 -15.9883 1.4428 -13.5318 2.8759 10.4914 30.5830 1.3440 -6.5357 -20.7393 0.0439 1.3529 3.7204 0.0000 0.0000 0.0000 27.1494 9.3578 -14.6380 -3.8824 -12.0022 35.7397 -1.8983 -2.6438 -27.0913 -0.0386 -1.2685 3.4878 5.3652 -0.8639 -3.1367 0.4862 -1.5424 3.3894 -2.6191 -0.5984 5.1602 1.9642 -1.4892 -4.2678 7.3962 -2.7886 5.1816 1.9436 -1.2254 2.4869 0.0000 0.0000 0.0000 -87.7700 -1.1906 20.4640 11.9229 -19.6889 -2.0762 -0.0000 0.0000 -22.2262 17.6036 8.0842 2.5548 -7.1250 0.0000 -0.0000 -7.9523 38.3428 1.3136 0.0000 0.0000 0.0000 89.6505 -1.5960 18.6843 -19.3042 29.7949 -5.1811 0.0000 -0.0000 -4.2820 -23.8838 -10.5846 4.6500 7.1250 -0.0000 -0.0000 2.8383 -41.5134 0.2443
50.7008 15.9514 18.9556 -175.0750 -41.9861 -180.0630 0.0000 0.0000 0.0000 -16.0179 1.5194 -13.3429 2.8452 10.4401 30.4141 1.3326 -6.7172 -20.6440 0.0444 1.3592 3.7378 0.0000 0.0000 0.0000 27.1219 9.3460 -14.5163 -3.8894 -12.0117 35.7735 -1.9121 -2.7344 -27.2242 -0.0386 -1.2677 3.4856 5.2797 -0.8931 -3.1562 0.5217 -1.5786 3.3717 -2.5371 -0.6206 5.1521 1.9546 -1.5431 -4.2784 7.4281 -2.8670 5.2135 1.9533 -1.2631 2.5031 -0.0000 0.0000 0.0000 -87.6421 -1.1918 21.0887 11.7001 -19.3534 -2.0018 -0.0000 0.0000 -22.7189 17.7015 7.8845 2.5070 -7.1250 0.0000 -0.0000 -7.8388 38.1427 1.3334 -0.0000 0.0000 0.0000 89.6931 -1.6298 18.7165 -19.3390 29.8377 -5.1984 0.0000 -0.0000 -4.2850 -24.1582 -10.6462 4.7370 7.1250 -0.0000 -0.0000 2.6015 -41.6071 0.2179
50.6929 15.9505 18.9581 -175.0970 -42.1174 -180.1410 0.0000 0.0000 0.0000 -16.0473 1.5895 -13.1814 2.8186 10.3954 30.2670 1.3203 -6.9013 -20.5432 0.0461 1.3859 3.8113 0.0000 0.0000 0.0000 27.0950 9.3153 -14.4171 -3.8957 -12.0203 35.8040 -1.9218 -2.8440 -27.3374 -0.0368 -1.2387 3.4058 5.2020 -0.9131 -3.1871 0.5501 -1.6028 3.3526 -2.4663 -0.6362 5.1499 1.9448 -1.6006 -4.2899 7.4818 -2.9534 5.2530 1.9700 -1.3043 2.5228 0.0000 -0.0000 0.0000 -87.5588 -1.1744 21.4602 11.5438 -19.1169 -1.9503 -0.0000 0.0000 -22.9934 17.7310 7.7176 2.4586 -7.1250 0.0000 -0.0000 -7.7890 37.9716 1.3577 0.0000 -0.0000 0.0000 89.7480 -1.6712 18.7313 -19.3623 29.8664 -5.2100 0.0000 -0.0000 -4.2455 -24.4080 -10.7001 4.8160 7.1250 -0.0000 -0.0000 2.3853 -41.6904 0.1949
50.6845 15.9498 18.9601 -175.1210 -42.2451 -180.2180 0.0000 0.0000 0.0000 -16.0850 1.6504 -13.0205 2.7927 10.3517 30.1233 1.3084 -7.0607 -20.4466 0.0492 1.4309 3.9353 0.0000 0.0000 0.0000 27.0654 9.2626 -14.3240 -3.9005 -12.0268 35.8269 -1.9269 -2.9673 -27.4265 -0.0336 -1.1836 3.2542 5.1201 -0.9327 -3.2280 0.5834 -1.6276 3.3381 -2.3885 -0.6521 5.1585 1.9239 -1.6617 -4.2840 7.5267 -3.0405 5.2758 1.9856 -1.3469 2.5338 -0.0000 0.0000 0.0000 -87.5911 -1.1129 21.3344 11.4899 -19.0353 -1.9327 -0.0000 0.0000 -22.8399 17.6848 7.5941 2.4128 -7.1250 0.0000 -0.0000 -7.8099 37.8403 1.3867 -0.0000 0.0000 0.0000 89.7889 -1.7062 18.7502 -19.3656 29.8705 -5.2117 0.0000 -0.0000 -4.1614 -24.6290 -10.7516 4.8883 7.1250 -0.0000 -0.0000 2.1942 -41.7685 0.1750
50.6754 15.9492 18.9621 -175.1550 -42.3549 -180.2850 0.0000 0.0000 0.0000 -16.1417 1.7004 -12.8588 2.7679 10.3094 29.9847 1.2983 -7.1781 -20.3652 0.0538 1.4963 4.1156 0.0000 0.0000 0.0000 27.0247 9.1996 -14.2397 -3.9051 -12.0331 35.8490 -1.9286 -3.0936 -27.4937 -0.0293 -1.1043 3.0360 5.0413 -0.9420 -3.2832 0.6110 -1.6396 3.3302 -2.3177 -0.6609 5.1832 1.8938 -1.7196 -4.2909 7.5815 -3.1242 5.3011 2.0063 -1.3874 2.5485 -0.0000 -0.0000 0.0000 -87.6622 -1.0379 21.0161 11.4937 -19.0410 -1.9339 -0.0000 0.0000 -22.5415 17.6268 7.4619 2.3629 -7.1250 0.0000 -0.0000 -7.8396 37.6994 1.4193 -0.0000 -0.0000 0.0000 89.8324 -1.7281 18.7538 -19.3474 29.8480 -5.2026 0.0000 -0.0000 -4.0436 -24.8084 -10.7747 4.9390 7.1250 -0.0000 -0.0000 2.0366 -41.8116 0.1603
50.6657 15.9488 18.9638 -175.1930 -42.4601 -180.3520 0.0000 0.0000 0.0000 -16.2126 1.7282 -12.6826 2.7433 10.2675 29.8473 1.2909 -7.2570 -20.3069 0.0609 1.5926 4.3809 0.0000 0.0000 0.0000 26.9765 9.1218 -14.1549 -3.9100 -12.0397 35.8724 -1.9309 -3.1925 -27.5535 -0.0258 -1.0362 2.8485 4.9753 -0.9434 -3.3519 0.6286 -1.6426 3.3337 -2.2645 -0.6639 5.2277 1.8626 -1.7775 -4.3004 7.6486 -3.2080 5.3130 2.0311 -1.4281 2.5596 -0.0000 -0.0000 0.0000 -87.7179 -0.9659 20.7316 11.5276 -19.0925 -1.9450 -0.0000 0.0000 -22.3043 17.5768 7.3183 2.3107 -7.1250 0.0000 -0.0000 -7.8610 37.5474 1.4528 -0.0000 -0.0000 0.0000 89.8852 -1.7374 18.7479 -19.3135 29.8063 -5.1857 0.0000 -0.0000 -3.9167 -24.9541 -10.7865 4.9772 7.1250 -0.0000 -0.0000 1.9077 -41.8392 0.1488
50.6558 15.9487 18.9658 -175.2430 -42.5483 -180.3980 0.0000 0.0000 0.0000 -16.3034 1.7325 -12.5060 2.7187 10.2251 29.7088 1.2862 -7.2895 -20.2693 0.0702 1.7098 4.7043 0.0000 0.0000 0.0000 26.9152 9.0558 -14.0828 -3.9159 -12.0476 35.9005 -1.9345 -3.2643 -27.6099 -0.0234 -0.9879 2.7155 4.9156 -0.9342 -3.4408 0.6375 -1.6326 3.3411 -2.2233 -0.6595 5.2885 1.8205 -1.8385 -4.3258 7.7148 -3.2959 5.3306 2.0574 -1.4704 2.5761 -0.0000 0.0000 0.0000 -87.7244 -0.9207 20.6467 11.5570 -19.1369 -1.9546 -0.0000 0.0000 -22.2857 17.5898 7.1542 2.2610 -7.1250 0.0000 -0.0000 -7.8265 37.3780 1.4790 -0.0000 0.0000 0.0000 89.9450 -1.7367 18.7312 -19.2627 29.7438 -5.1605 0.0000 -0.0000 -3.7838 -25.0703 -10.7664 4.9943 7.1250 -0.0000 -0.0000 1.8015 -41.8290 0.1410
50.6462 15.9492 18.9687 -175.3060 -42.6294 -180.3960 0.0000 0.0000 0.0000 -16.4133 1.7040 -12.3656 2.6944 10.1832 29.5719 1.2820 -7.2865 -20.2357 0.0815 1.8415 5.0677 0.0000 0.0000 0.0000 26.8352 9.0155 -14.0529 -3.9228 -12.0569 35.9335 -1.9396 -3.3125 -27.6660 -0.0221 -0.9602 2.6392 4.8535 -0.9204 -3.5540 0.6438 -1.6164 3.3378 -2.1834 -0.6519 5.3525 1.7764 -1.8994 -4.3625 7.7667 -3.3831 5.3557 2.0794 -1.5120 2.5969 -0.0000 0.0000 0.0000 -87.6907 -0.8951 20.7585 11.5801 -19.1720 -1.9622 -0.0000 0.0000 -22.4843 17.6627 6.9533 2.2076 -7.1250 0.0000 -0.0000 -7.7366 37.1742 1.5007 -0.0000 0.0000 0.0000 89.9968 -1.7318 18.7252 -19.1973 29.6631 -5.1281 0.0000 -0.0000 -3.6616 -25.1753 -10.7303 5.0015 7.1250 -0.0000 -0.0000 1.7037 -41.8000 0.1345
